<svg width="150" height="36" viewBox="0 0 150 36" fill="none" xmlns="http://www.w3.org/2000/svg">
<g id="Logo.svg" clip-path="url(#clip0_84_168)">
<g id="Group">
<path id="Acer" d="M149.729 1.62001C149.186 0.900005 148.643 0.360005 146.019 0.180005C145.386 0.0900051 143.124 0.0900051 139.415 0.0900051C129.644 0.0900051 122.949 3.06 119.602 8.91C120.507 2.97 114.807 0.0900051 102.322 0.0900051C87.7563 5.06639e-06 78.6188 5.94001 74.9095 17.64C73.5525 21.06 73.462 24.84 74.4572 28.44L71.0193 28.71C68.3052 28.89 64.7768 29.07 62.6056 29.07C57.2678 29.07 53.9204 28.17 52.6538 26.37C51.4777 24.75 51.6586 21.78 52.9252 17.37C55.187 10.17 60.7057 6.93 69.4813 6.93C74.0953 6.93 78.5284 7.38 78.5284 7.38C79.0712 7.29 79.4331 6.75 79.3426 6.21C79.3426 6.21 79.3426 6.21 79.3426 6.12001L79.2521 5.4L78.9807 2.97C78.7998 1.35 77.6237 0.450005 75.4524 0.0900051C73.5525 0.0900051 72.0145 5.06453e-06 69.8432 5.06453e-06H69.7527C58.1725 5.06453e-06 50.1206 3.87001 45.5971 11.43C47.2256 3.78 41.8878 5.06453e-06 29.4934 5.06453e-06C24.5175 -0.0899949 19.6321 0.090005 14.7467 0.630005C12.8468 0.630005 11.2184 1.71001 10.5851 3.51L9.58988 6.66001C9.40894 7.20001 9.68035 7.56 10.4041 7.56C10.9469 7.47 13.0278 7.29 16.6466 7.02C21.351 6.48 24.8794 6.3 27.1411 6.3C33.9264 6.3 36.8215 8.01 35.7358 11.43C35.5549 12.15 34.9216 12.69 34.1978 12.87C27.7744 13.95 22.6176 14.67 18.9083 15.21C8.23283 16.47 2.17131 19.8 0.452368 25.11C-1.80939 32.31 3.89024 35.91 17.5513 35.91C23.2509 36 29.041 35.55 34.6502 34.74C37.2738 34.29 38.6309 33.57 39.1737 31.86L41.7069 23.76C41.4355 31.86 47.1351 35.91 58.7153 35.91C62.7865 36 66.7672 35.82 70.7479 35.37C73.1001 34.92 74.2762 34.47 74.8191 32.67L75.3619 30.15C77.8046 34.02 83.2328 35.91 91.6466 35.91C100.513 35.91 105.669 35.64 107.117 35.19C108.112 35.01 109.017 34.29 109.379 33.3C109.469 33.12 109.469 32.94 109.469 32.76L110.555 29.34C110.736 28.71 110.464 28.44 109.741 28.44L104.041 28.71C100.241 28.89 97.3462 29.07 95.1749 28.98C92.3703 29.16 89.5658 28.89 86.8516 28.17C84.6804 27.45 83.3233 25.29 83.6852 23.04L101.598 20.7C109.65 19.71 114.988 17.19 117.702 13.32L111.641 34.47C111.55 34.83 111.55 35.19 111.731 35.46C112.093 35.73 112.455 35.91 112.907 35.82H120.326C121.14 35.91 122.045 35.46 122.226 34.56L128.739 11.7C129.644 8.73 132.358 7.2 137.153 7.2C141.496 7.2 144.753 7.20001 146.834 7.29001C146.924 7.29001 146.924 7.29001 147.014 7.29001C147.738 7.29001 148.372 6.84 148.552 6.12001L149.729 2.97C150.09 2.7 150.09 2.07 149.729 1.62001ZM30.2171 29.07C26.8697 29.52 23.5223 29.7 20.2654 29.61C12.7563 29.61 9.40894 28.08 10.4041 25.02C11.1279 22.86 13.0278 21.51 16.3752 21.06L33.4741 18.81L30.2171 29.07ZM109.469 10.62C108.745 12.96 105.398 14.58 99.427 15.39L85.1327 17.46L85.4946 16.29C86.2183 13.14 87.9373 10.35 90.5609 8.46C92.7322 7.11 96.2606 6.39 101.146 6.39C107.569 6.3 110.374 7.74001 109.469 10.62Z" fill="#4B5563"/>
</g>
</g>
<defs>
<clipPath id="clip0_84_168">
<rect width="150" height="36" fill="white"/>
</clipPath>
</defs>
</svg>
