<svg width="150" height="32" viewBox="0 0 150 32" fill="none" xmlns="http://www.w3.org/2000/svg">
<g id="asus_logo.svg" clip-path="url(#clip0_84_164)">
<g id="Group">
<path id="Vector" d="M73.2258 0.5H46.7742C40.6452 0.5 37.871 4.31042 37.2903 7.99167V0.5H22.5806C20.5161 0.5 19.5484 1.14583 18.5806 2.56667L14.5806 8.44375H73.2258V0.5ZM0 31.5H10.5161L23.6774 10.1875L14.2581 9.28333L0 31.5ZM83.4194 0.5H74.7742V8.44375H83.4194V0.5ZM138.452 12.9L111.29 11.2854C111.29 15.4187 114 18.2604 118.645 18.5833L137.935 20.0687C139.419 20.1979 140.323 20.5854 140.323 21.8125C140.323 22.975 139.29 23.4271 137.097 23.4271H110.774V31.5H137.677C146.129 31.5 149.871 28.5292 149.871 21.7479C150 15.6771 146.645 13.4167 138.452 12.9Z" fill="#4B5563"/>
<path id="Vector_2" d="M110.968 11.2854L102.452 10.7687V19.875C102.452 22.7167 101.032 23.6208 96.0645 23.6208H89.2258C85.1613 23.6208 83.4193 22.4583 83.4193 19.875V9.92917L74.7742 9.28333V20.65H74.5806C74.0645 17.3563 72.8387 13.5458 64.5806 12.9646L37.4839 11.1562C37.4839 15.2896 40.4516 17.8083 45.0968 18.2604L64 20.1979C65.4839 20.3271 66.5806 20.7792 66.5806 22.0062C66.5806 23.3625 65.4839 23.4917 63.7419 23.4917H37.1613V11.0917L28.5161 10.5104V31.5H63.8064C71.6774 31.5 74.1935 27.4312 74.5806 24.0083H74.7742C75.7419 29.4333 80.4516 31.5 88.4516 31.5H97.2258C106.581 31.5 110.968 28.6583 110.968 21.9417V11.2854ZM149.355 8.44375V0.5H120.258C114.194 0.5 111.484 4.24583 110.968 7.8625C110.968 7.92708 110.968 7.92708 110.968 7.99167V0.5H102.452V8.44375H149.355Z" fill="#4B5563"/>
</g>
</g>
<defs>
<clipPath id="clip0_84_164">
<rect width="150" height="31" fill="white" transform="translate(0 0.5)"/>
</clipPath>
</defs>
</svg>
