<svg width="150" height="32" viewBox="0 0 150 32" fill="none" xmlns="http://www.w3.org/2000/svg">
<g id="canon_logo.svg" clip-path="url(#clip0_84_146)">
<g id="canon-logo">
<path id="Vector" d="M24.4875 28.681C17.5125 28.681 11.8687 22.9948 11.8687 15.9906C11.8687 8.9864 17.5125 3.31904 24.4875 3.31904C26.9438 3.31904 29.25 4.01569 31.1813 5.23954L24.4875 15.9906L37.0875 8.68515C35.7188 6.50105 33.75 4.59937 31.3875 3.16841C28.3687 1.37971 24.1687 0.25 19.5187 0.25C12.8812 0.25 7.06875 2.66004 3.825 6.29393C1.425 8.96757 0 12.3379 0 16.0094C0 19.681 1.425 23.0513 3.825 25.7249C7.06875 29.3588 12.8062 31.75 19.3312 31.75C25.8562 31.75 31.575 29.34 34.8375 25.7249C35.0063 25.5178 35.1937 25.3295 35.3438 25.1224L34.8562 23.2772C32.5687 26.5345 28.7813 28.681 24.4875 28.681Z" fill="#4B5563"/>
<path id="Vector_2" d="M66.2625 30.9969L60.975 11.1893C60.1313 7.9885 57.225 5.63495 53.775 5.63495C52.875 5.63495 52.0125 5.8044 51.225 6.08683L39.8438 10.2479H51.5437L53.55 17.7416C51.6 16.0659 49.0875 15.0492 46.3125 15.0492C40.8188 15.0492 36.375 18.7396 36.375 23.3149C36.375 27.8714 40.8188 31.5806 46.3125 31.5806C50.2688 31.5806 53.775 29.6412 55.9312 26.6475L57.0938 30.9969H66.2625ZM50.1375 27.909C47.6062 27.909 45.5437 25.8567 45.5437 23.296C45.5437 20.7542 47.6062 18.6831 50.1375 18.6831C52.6687 18.6831 54.7312 20.7542 54.7312 23.296C54.7312 25.8567 52.6687 27.909 50.1375 27.909Z" fill="#4B5563"/>
<path id="Vector_3" d="M87.825 5.63495C87.1312 5.63495 86.475 5.78558 85.8937 6.068L78.5812 9.49478C78.225 7.31068 76.3312 5.65378 74.0437 5.65378C73.35 5.65378 72.6937 5.8044 72.0937 6.08683L63.1687 10.2667H69.45V31.0157H78.6375V12.5638C78.6375 11.2835 79.6687 10.2479 80.925 10.2479C82.1812 10.2479 83.2125 11.2835 83.2125 12.5638V31.0157H92.4V10.2479C92.4 7.68725 90.3562 5.63495 87.825 5.63495Z" fill="#4B5563"/>
<path id="Vector_4" d="M145.406 5.63495C144.712 5.63495 144.056 5.78558 143.456 6.068L136.163 9.47595C135.806 7.29185 133.913 5.63495 131.625 5.63495C130.931 5.63495 130.275 5.78558 129.675 6.068L120.75 10.2479H127.031V30.9969H136.219V12.545C136.219 11.2647 137.25 10.2291 138.525 10.2291C139.8 10.2291 140.812 11.2647 140.812 12.545V30.9969H150V10.2479C150 7.68725 147.938 5.63495 145.406 5.63495Z" fill="#4B5563"/>
<path id="Vector_5" d="M122.25 18.7019C122.25 25.9132 116.438 31.7688 109.256 31.7688C102.075 31.7688 96.2438 25.9132 96.2438 18.7019C96.2438 11.4906 102.075 5.63495 109.256 5.63495C116.438 5.63495 122.25 11.4906 122.25 18.7019ZM109.781 9.58892C109.369 8.04499 107.794 7.14122 106.275 7.55545C104.738 7.96968 103.838 9.55127 104.25 11.0764L108.713 27.7772C109.125 29.3211 110.7 30.2249 112.219 29.8295C113.756 29.4153 114.656 27.8337 114.244 26.2898L109.781 9.58892Z" fill="#4B5563"/>
</g>
</g>
<defs>
<clipPath id="clip0_84_146">
<rect width="150" height="31.5" fill="white" transform="translate(0 0.25)"/>
</clipPath>
</defs>
</svg>
