<svg width="150" height="150" viewBox="0 0 150 150" fill="none" xmlns="http://www.w3.org/2000/svg">
<g id="Logo.svg" clip-path="url(#clip0_84_153)">
<g id="Group">
<g id="Group_2">
<path id="Vector" d="M75.1043 120C74.6871 120 74.2003 120 73.7831 120L82.9625 94.7222H95.6189C97.8443 94.7222 100.278 92.9861 101.043 90.9028L111.057 63.4722C112.726 58.9583 110.083 55.2778 105.355 55.2778H87.7608L73.0181 95.8333L64.6732 118.819C44.854 114.097 30.0417 96.3195 30.0417 75C30.0417 54.375 43.95 36.9444 62.9347 31.6667L54.3116 55.3472L39.9861 94.7222H49.5132L61.6829 61.25H68.8456L56.676 94.7222H66.2031L77.6078 63.5417C79.2768 59.0278 76.7038 55.3472 71.9054 55.3472H63.8387L73.0876 30.0694C73.7831 30.0694 74.4089 30 75.1043 30C100 30 120.167 50.1389 120.167 75C120.167 99.8611 100 120 75.1043 120ZM102.364 61.25H95.2017L85.1182 88.8194H92.281L102.364 61.25Z" fill="#4B5563"/>
</g>
</g>
</g>
<defs>
<clipPath id="clip0_84_153">
<rect width="150" height="150" fill="white"/>
</clipPath>
</defs>
</svg>
