<svg width="150" height="50" viewBox="0 0 150 50" fill="none" xmlns="http://www.w3.org/2000/svg">
<g id="lenovo_logo.svg" clip-path="url(#clip0_84_158)">
<g id="Symbols">
<g id="Artboard">
<g id="LenovoLogo-POS-1Color-Copy">
<path id="logo-red" d="M0 49.25V0.75H150V49.25H0ZM31.2903 31.1433H19.3548V10.935H13.871V35.9933H31.2903V31.1433ZM49.5161 19.665C47.7419 17.5633 45.1613 16.4317 41.9355 16.4317C36.129 16.4317 31.7742 20.7967 31.7742 26.455C31.7742 32.275 36.129 36.4783 42.5806 36.4783C46.129 36.4783 49.8387 34.7 51.4516 32.76L48.0645 30.1733C45.8065 31.79 44.5161 32.275 42.5806 32.275C40.8065 32.275 39.3548 31.6283 38.3871 30.6583L51.9355 25C51.6129 22.8983 50.8065 20.9583 49.5161 19.665ZM73.2258 24.03C73.2258 19.665 70 16.4317 65.4839 16.4317C63.2258 16.4317 60.8065 17.4017 59.1936 19.5033V16.755H53.871V35.9933H59.1936V25C59.1936 23.06 60.6452 20.9583 63.5484 20.9583C65.8064 20.9583 68.0645 22.4133 68.0645 25V35.9933H73.3871V24.03H73.2258ZM85.6452 16.4317C79.8387 16.4317 75.3226 20.7967 75.3226 26.455C75.3226 32.1133 79.8387 36.4783 85.6452 36.4783C91.4516 36.4783 95.9677 32.1133 95.9677 26.455C95.9677 20.7967 91.4516 16.4317 85.6452 16.4317ZM110.645 16.755L105.806 29.85L100.968 16.755H95.1613L103.065 35.9933H108.871L116.774 16.755H110.645ZM126.29 16.4317C120.484 16.4317 115.968 20.7967 115.968 26.455C115.968 32.1133 120.484 36.4783 126.29 36.4783C132.097 36.4783 136.613 32.1133 136.613 26.455C136.613 20.7967 132.097 16.4317 126.29 16.4317ZM126.29 31.79C123.387 31.79 121.129 29.365 121.129 26.2933C121.129 23.06 123.226 20.7967 126.29 20.7967C129.194 20.7967 131.452 23.2217 131.452 26.2933C131.452 29.5267 129.194 31.79 126.29 31.79ZM85.6452 31.79C82.7419 31.79 80.4839 29.365 80.4839 26.2933C80.4839 23.06 82.5807 20.7967 85.6452 20.7967C88.5484 20.7967 90.8064 23.2217 90.8064 26.2933C90.8064 29.5267 88.5484 31.79 85.6452 31.79ZM38.0645 22.575C39.0323 21.4433 40.3226 20.635 42.0968 20.635C44.0323 20.635 45.4839 21.7667 46.129 23.3833L36.9355 27.2633C36.6129 25.1617 37.2581 23.7067 38.0645 22.575Z" fill="#4B5563"/>
</g>
</g>
</g>
</g>
<defs>
<clipPath id="clip0_84_158">
<rect width="150" height="48.5" fill="white" transform="translate(0 0.75)"/>
</clipPath>
</defs>
</svg>
