<svg width="176" height="202" viewBox="0 0 176 202" fill="none" xmlns="http://www.w3.org/2000/svg">
<g id="Group">
<path id="Vector" d="M89.9181 0H85.9033V11.5142H89.9181V0Z" fill="#FF5722"/>
<path id="Vector_2" d="M89.9181 0H85.9033V11.5142H89.9181V0Z" fill="#FF5722"/>
<path id="Vector_3" d="M89.9181 190.001H85.9033V201.516H89.9181V190.001Z" fill="#FF5722"/>
<path id="Vector_4" d="M10.1164 98.4551H0.0794678V103.061H10.1164V98.4551Z" fill="#FF5722"/>
<path id="Vector_5" d="M10.1164 98.4551H0.0794678V103.061H10.1164V98.4551Z" fill="#FF5722"/>
<path id="Vector_6" d="M175.742 98.4551H165.705V103.061H175.742V98.4551Z" fill="#FF5722"/>
<path id="Vector_7" d="M27.2363 27.8827L24.3975 31.1394L31.4947 39.2811L34.3336 36.0244L27.2363 27.8827Z" fill="#FF5722"/>
<path id="Vector_8" d="M27.2363 27.8827L24.3975 31.1394L31.4947 39.2811L34.3336 36.0244L27.2363 27.8827Z" fill="#FF5722"/>
<path id="Vector_9" d="M144.335 162.244L141.497 165.501L148.594 173.643L151.433 170.386L144.335 162.244Z" fill="#FF5722"/>
<path id="Vector_10" d="M31.486 162.228L24.39 170.372L27.2294 173.628L34.3254 165.485L31.486 162.228Z" fill="#FF5722"/>
<path id="Vector_11" d="M31.486 162.228L24.39 170.372L27.2294 173.628L34.3254 165.485L31.486 162.228Z" fill="#FF5722"/>
<path id="Vector_12" d="M148.596 27.8778L141.5 36.021L144.34 39.2771L151.436 31.134L148.596 27.8778Z" fill="#FF5722"/>
<path id="Vector_13" d="M69.8533 2.12837L65.9441 3.17773L68.2309 14.3891L72.1401 13.3397L69.8533 2.12837Z" fill="#FF5722"/>
<path id="Vector_14" d="M69.8533 2.12837L65.9441 3.17773L68.2309 14.3891L72.1401 13.3397L69.8533 2.12837Z" fill="#FF5722"/>
<path id="Vector_15" d="M107.596 187.139L103.687 188.188L105.974 199.399L109.883 198.35L107.596 187.139Z" fill="#FF5722"/>
<path id="Vector_16" d="M11.714 118.848L1.94177 121.476L2.85787 125.96L12.6301 123.332L11.714 118.848Z" fill="#FF5722"/>
<path id="Vector_17" d="M11.714 118.848L1.94177 121.476L2.85787 125.96L12.6301 123.332L11.714 118.848Z" fill="#FF5722"/>
<path id="Vector_18" d="M172.978 75.5663L163.205 78.1917L164.12 82.676L173.893 80.0506L172.978 75.5663Z" fill="#FF5722"/>
<path id="Vector_19" d="M14.3511 45.6651L12.2343 49.5786L20.7628 55.6495L22.8796 51.736L14.3511 45.6651Z" fill="#FF5722"/>
<path id="Vector_20" d="M14.3511 45.6651L12.2343 49.5786L20.7628 55.6495L22.8796 51.736L14.3511 45.6651Z" fill="#FF5722"/>
<path id="Vector_21" d="M155.066 145.852L152.949 149.765L161.478 155.836L163.595 151.923L155.066 145.852Z" fill="#FF5722"/>
<path id="Vector_22" d="M45.1944 175.359L39.9009 185.142L43.3119 187.571L48.6054 177.788L45.1944 175.359Z" fill="#FF5722"/>
<path id="Vector_23" d="M45.1944 175.359L39.9009 185.142L43.3119 187.571L48.6054 177.788L45.1944 175.359Z" fill="#FF5722"/>
<path id="Vector_24" d="M132.51 13.9278L127.216 23.7104L130.627 26.1395L135.921 16.3569L132.51 13.9278Z" fill="#FF5722"/>
<path id="Vector_25" d="M57.382 6.24221L53.6504 7.94141L57.3534 18.6433L61.085 16.9441L57.382 6.24221Z" fill="#FF5722"/>
<path id="Vector_26" d="M57.382 6.24221L53.6504 7.94141L57.3534 18.6433L61.085 16.9441L57.382 6.24221Z" fill="#FF5722"/>
<path id="Vector_27" d="M118.472 182.855L114.74 184.554L118.443 195.256L122.175 193.557L118.472 182.855Z" fill="#FF5722"/>
<path id="Vector_28" d="M14.8596 131.525L5.53064 135.773L7.01184 140.054L16.3408 135.806L14.8596 131.525Z" fill="#FF5722"/>
<path id="Vector_29" d="M14.8596 131.525L5.53064 135.773L7.01184 140.054L16.3408 135.806L14.8596 131.525Z" fill="#FF5722"/>
<path id="Vector_30" d="M168.814 61.4442L159.485 65.6921L160.966 69.9729L170.295 65.7249L168.814 61.4442Z" fill="#FF5722"/>
<path id="Vector_31" d="M8.07785 58.6984L6.48596 62.9265L15.7002 67.492L17.2921 63.2638L8.07785 58.6984Z" fill="#FF5722"/>
<path id="Vector_32" d="M8.07785 58.6984L6.48596 62.9265L15.7002 67.492L17.2921 63.2638L8.07785 58.6984Z" fill="#FF5722"/>
<path id="Vector_33" d="M160.144 134.038L158.552 138.266L167.767 142.832L169.359 138.604L160.144 134.038Z" fill="#FF5722"/>
<path id="Vector_34" d="M55.2422 181.792L51.264 192.363L54.95 194.189L58.9281 183.618L55.2422 181.792Z" fill="#FF5722"/>
<path id="Vector_35" d="M55.2422 181.792L51.264 192.363L54.95 194.189L58.9281 183.618L55.2422 181.792Z" fill="#FF5722"/>
<path id="Vector_36" d="M120.881 7.34412L116.903 17.9153L120.589 19.7407L124.567 9.16956L120.881 7.34412Z" fill="#FF5722"/>
<path id="Vector_37" d="M39.4141 16.7269L36.1182 19.3567L41.8493 28.8092L45.1452 26.1794L39.4141 16.7269Z" fill="#FF5722"/>
<path id="Vector_38" d="M39.4141 16.7269L36.1182 19.3567L41.8493 28.8092L45.1452 26.1794L39.4141 16.7269Z" fill="#FF5722"/>
<path id="Vector_39" d="M133.986 172.698L130.69 175.328L136.421 184.78L139.717 182.15L133.986 172.698Z" fill="#FF5722"/>
<path id="Vector_40" d="M22.905 149.818L14.6652 156.392L16.9576 160.173L25.1975 153.599L22.905 149.818Z" fill="#FF5722"/>
<path id="Vector_41" d="M22.905 149.818L14.6652 156.392L16.9576 160.173L25.1975 153.599L22.905 149.818Z" fill="#FF5722"/>
<path id="Vector_42" d="M158.878 41.3512L150.638 47.9258L152.93 51.7068L161.17 45.1322L158.878 41.3512Z" fill="#FF5722"/>
<path id="Vector_43" d="M1.8159 80.6766L1.10632 85.2097L10.9853 87.2447L11.6949 82.7116L1.8159 80.6766Z" fill="#FF5722"/>
<path id="Vector_44" d="M1.8159 80.6766L1.10632 85.2097L10.9853 87.2447L11.6949 82.7116L1.8159 80.6766Z" fill="#FF5722"/>
<path id="Vector_45" d="M164.847 114.268L164.138 118.801L174.017 120.836L174.726 116.303L164.847 114.268Z" fill="#FF5722"/>
<path id="Vector_46" d="M72.1964 188.187L70.4242 199.52L74.3759 200.333L76.1481 189L72.1964 188.187Z" fill="#FF5722"/>
<path id="Vector_47" d="M72.1964 188.187L70.4242 199.52L74.3759 200.333L76.1481 189L72.1964 188.187Z" fill="#FF5722"/>
<path id="Vector_48" d="M101.453 1.17163L99.6809 12.5049L103.633 13.3181L105.405 1.98485L101.453 1.17163Z" fill="#FF5722"/>
</g>
</svg>
