<svg width="10" height="48" viewBox="0 0 10 48" fill="none" xmlns="http://www.w3.org/2000/svg">
<g id="Group">
<g id="Group_2">
<path id="Vector" d="M2.00536 0.363985L0.0195312 2.64526L7.63525 11.3696L9.62108 9.08835L2.00536 0.363985Z" fill="#FACD49"/>
<path id="Vector_2" d="M0.0146898 9.10838L2.0033 11.3865L9.60839 2.64992L7.61978 0.371821L0.0146898 9.10838Z" fill="#FACD49"/>
</g>
<g id="Group_3">
<path id="Vector_3" d="M2.03185 23.4458L0.0460205 25.7271L7.66173 34.4514L9.64756 32.1701L2.03185 23.4458Z" fill="#FACD49"/>
<path id="Vector_4" d="M0.030681 32.1775L2.01929 34.4556L9.62437 25.719L7.63576 23.4409L0.030681 32.1775Z" fill="#FACD49"/>
</g>
<g id="Group_4">
<path id="Vector_5" d="M2.04186 44.905L0.0560303 47.1863L7.67174 55.9106L9.65757 53.6294L2.04186 44.905Z" fill="#FACD49"/>
<path id="Vector_6" d="M0.0526537 53.6719L2.04126 55.95L9.64634 47.2134L7.65774 44.9353L0.0526537 53.6719Z" fill="#FACD49"/>
</g>
</g>
</svg>
