<svg width="33" height="32" viewBox="0 0 33 32" fill="none" xmlns="http://www.w3.org/2000/svg">
<g id="send 1">
<path id="Vector" d="M29.0805 3.44264C28.4136 2.75813 27.4265 2.50312 26.5061 2.77154L5.04396 9.01269C4.07289 9.28248 3.38461 10.0569 3.1992 11.0407C3.00979 12.042 3.6714 13.3131 4.53575 13.8445L11.2465 17.9691C11.9348 18.3919 12.8231 18.2859 13.3927 17.7113L21.0772 9.97906C21.464 9.57641 22.1042 9.57641 22.4912 9.97906C22.878 10.3683 22.878 10.9991 22.4912 11.4018L14.7933 19.1355C14.2224 19.7085 14.1157 20.6011 14.5358 21.2936L18.6362 28.0717C19.1164 28.8769 19.9434 29.3333 20.8504 29.3333C20.9572 29.3333 21.0772 29.3333 21.184 29.3199C22.2244 29.1857 23.0513 28.4744 23.3581 27.4677L29.7208 6.03305C30.0009 5.12037 29.7474 4.12716 29.0805 3.44264Z" fill="white"/>
</g>
</svg>
